<svg width="61" height="61" viewBox="0 0 61 61" fill="none" xmlns="http://www.w3.org/2000/svg">
<g clip-path="url(#clip0_10_6)">
<path d="M30.5 5.08334C16.47 5.08334 5.08337 16.47 5.08337 30.5C5.08337 44.53 16.47 55.9167 30.5 55.9167C44.53 55.9167 55.9167 44.53 55.9167 30.5C55.9167 16.47 44.53 5.08334 30.5 5.08334ZM30.5 15.25C35.4055 15.25 39.3959 19.2404 39.3959 24.1458C39.3959 29.0513 35.4055 33.0417 30.5 33.0417C25.5946 33.0417 21.6042 29.0513 21.6042 24.1458C21.6042 19.2404 25.5946 15.25 30.5 15.25ZM30.5 50.8333C25.3405 50.8333 19.2405 48.7492 14.8942 43.5133C19.1896 40.1583 24.6034 38.125 30.5 38.125C36.3967 38.125 41.8105 40.1583 46.1059 43.5133C41.7596 48.7492 35.6596 50.8333 30.5 50.8333Z" fill="#373F47"/>
</g>
<defs>
<clipPath id="clip0_10_6">
<rect width="61" height="61" fill="white"/>
</clipPath>
</defs>
</svg>
