<svg width="54" height="44" viewBox="0 0 54 44" fill="none" xmlns="http://www.w3.org/2000/svg">
<path d="M49.0909 0H4.90909C2.20909 0 0 2.2 0 4.88889V34.2222C0 36.9111 2.20909 39.1111 4.90909 39.1111H17.1818V44H36.8182V39.1111H49.0909C51.7909 39.1111 53.9755 36.9111 53.9755 34.2222L54 4.88889C54 2.2 51.7909 0 49.0909 0ZM49.0909 34.2222H4.90909V4.88889H49.0909V34.2222Z" fill="#564E58"/>
<g clip-path="url(#clip0_7_188)">
<path d="M34.6582 15.1067C35.2547 15.1067 35.7382 14.6251 35.7382 14.0311C35.7382 13.4371 35.2547 12.9556 34.6582 12.9556C34.0617 12.9556 33.5782 13.4371 33.5782 14.0311C33.5782 14.6251 34.0617 15.1067 34.6582 15.1067Z" fill="#564E58"/>
<path d="M30.3382 15.1067C30.9346 15.1067 31.4182 14.6251 31.4182 14.0311C31.4182 13.4371 30.9346 12.9556 30.3382 12.9556C29.7417 12.9556 29.2582 13.4371 29.2582 14.0311C29.2582 14.6251 29.7417 15.1067 30.3382 15.1067Z" fill="#564E58"/>
<path d="M32.4874 16.72C30.997 16.72 29.7874 17.6235 29.7874 18.7421H35.1874C35.1874 17.6235 33.9778 16.72 32.4874 16.72Z" fill="#564E58"/>
<path d="M15.2182 24.2489C15.2182 27.809 18.1234 30.7023 21.6982 30.7023C25.273 30.7023 28.1782 27.809 28.1782 24.2489V16.72H15.2182V24.2489ZM17.3782 18.8711H26.0182V24.2489C26.0182 26.6259 24.085 28.5511 21.6982 28.5511C19.3114 28.5511 17.3782 26.6259 17.3782 24.2489V18.8711Z" fill="#564E58"/>
<path d="M26.0182 9.19113V15.1067H28.1782V11.3422H36.8182V16.72C36.8182 19.097 34.885 21.0222 32.4982 21.0222C31.4722 21.0222 30.5434 20.6458 29.7982 20.0542V22.5818C30.619 22.9582 31.537 23.1734 32.4982 23.1734C36.073 23.1734 38.9782 20.2801 38.9782 16.72V9.19113H26.0182Z" fill="#564E58"/>
<path d="M19.5382 22.6356C20.1347 22.6356 20.6182 22.154 20.6182 21.56C20.6182 20.966 20.1347 20.4845 19.5382 20.4845C18.9417 20.4845 18.4582 20.966 18.4582 21.56C18.4582 22.154 18.9417 22.6356 19.5382 22.6356Z" fill="#564E58"/>
<path d="M23.8582 22.6356C24.4547 22.6356 24.9382 22.154 24.9382 21.56C24.9382 20.966 24.4547 20.4845 23.8582 20.4845C23.2617 20.4845 22.7782 20.966 22.7782 21.56C22.7782 22.154 23.2617 22.6356 23.8582 22.6356Z" fill="#564E58"/>
<path d="M21.6982 26.2709C23.1886 26.2709 24.3982 25.3675 24.3982 24.2489H18.9982C18.9982 25.3675 20.2078 26.2709 21.6982 26.2709Z" fill="#564E58"/>
</g>
<defs>
<clipPath id="clip0_7_188">
<rect width="25.92" height="25.8133" fill="white" transform="translate(14.1382 7.04001)"/>
</clipPath>
</defs>
</svg>
