<svg width="42" height="34" viewBox="0 0 42 34" fill="none" xmlns="http://www.w3.org/2000/svg">
<path d="M38.1818 0H3.81818C1.71818 0 0 1.7 0 3.77778V26.4444C0 28.5222 1.71818 30.2222 3.81818 30.2222H13.3636V34H28.6364V30.2222H38.1818C40.2818 30.2222 41.9809 28.5222 41.9809 26.4444L42 3.77778C42 1.7 40.2818 0 38.1818 0ZM38.1818 26.4444H3.81818V3.77778H38.1818V26.4444Z" fill="#FFFDF9"/>
<g clip-path="url(#clip0_7_188)">
<path d="M26.9564 11.6733C27.4203 11.6733 27.7964 11.3012 27.7964 10.8422C27.7964 10.3832 27.4203 10.0111 26.9564 10.0111C26.4925 10.0111 26.1164 10.3832 26.1164 10.8422C26.1164 11.3012 26.4925 11.6733 26.9564 11.6733Z" fill="#FFFDF9"/>
<path d="M23.5963 11.6733C24.0603 11.6733 24.4363 11.3012 24.4363 10.8422C24.4363 10.3832 24.0603 10.0111 23.5963 10.0111C23.1324 10.0111 22.7563 10.3832 22.7563 10.8422C22.7563 11.3012 23.1324 11.6733 23.5963 11.6733Z" fill="#FFFDF9"/>
<path d="M25.268 12.92C24.1088 12.92 23.168 13.6181 23.168 14.4825H27.368C27.368 13.6181 26.4272 12.92 25.268 12.92Z" fill="#FFFDF9"/>
<path d="M11.8364 18.7378C11.8364 21.4888 14.096 23.7245 16.8764 23.7245C19.6568 23.7245 21.9164 21.4888 21.9164 18.7378V12.92H11.8364V18.7378ZM13.5164 14.5822H20.2364V18.7378C20.2364 20.5745 18.7328 22.0622 16.8764 22.0622C15.02 22.0622 13.5164 20.5745 13.5164 18.7378V14.5822Z" fill="#FFFDF9"/>
<path d="M20.2364 7.10223V11.6733H21.9164V8.76446H28.6364V12.92C28.6364 14.7568 27.1328 16.2445 25.2764 16.2445C24.4784 16.2445 23.756 15.9536 23.1764 15.4965V17.4496C23.8148 17.7405 24.5288 17.9067 25.2764 17.9067C28.0568 17.9067 30.3164 15.671 30.3164 12.92V7.10223H20.2364Z" fill="#FFFDF9"/>
<path d="M15.1964 17.4911C15.6603 17.4911 16.0364 17.119 16.0364 16.66C16.0364 16.201 15.6603 15.8289 15.1964 15.8289C14.7325 15.8289 14.3564 16.201 14.3564 16.66C14.3564 17.119 14.7325 17.4911 15.1964 17.4911Z" fill="#FFFDF9"/>
<path d="M18.5564 17.4911C19.0203 17.4911 19.3964 17.119 19.3964 16.66C19.3964 16.201 19.0203 15.8289 18.5564 15.8289C18.0925 15.8289 17.7164 16.201 17.7164 16.66C17.7164 17.119 18.0925 17.4911 18.5564 17.4911Z" fill="#FFFDF9"/>
<path d="M16.8764 20.3003C18.0356 20.3003 18.9764 19.6021 18.9764 18.7378H14.7764C14.7764 19.6021 15.7172 20.3003 16.8764 20.3003Z" fill="#FFFDF9"/>
</g>
<defs>
<clipPath id="clip0_7_188">
<rect width="20.16" height="19.9467" fill="white" transform="translate(10.9963 5.44)"/>
</clipPath>
</defs>
</svg>
